<mxfile host="app.diagrams.net" modified="2024-05-15T01:03:15.183Z" agent="Mozilla/5.0 (Windows NT 10.0; Win64; x64) AppleWebKit/537.36 (KHTML, like Gecko) Chrome/124.0.0.0 Safari/537.36" etag="_4MHVF2boLGGGG5OEkzr" version="24.4.0" type="github">
  <diagram id="C5RBs43oDa-KdzZeNtuy" name="Page-1">
    <mxGraphModel dx="1016" dy="833" grid="1" gridSize="10" guides="1" tooltips="1" connect="1" arrows="1" fold="1" page="1" pageScale="1" pageWidth="827" pageHeight="1169" math="0" shadow="0">
      <root>
        <mxCell id="WIyWlLk6GJQsqaUBKTNV-0" />
        <mxCell id="WIyWlLk6GJQsqaUBKTNV-1" parent="WIyWlLk6GJQsqaUBKTNV-0" />
        <mxCell id="QgaYSg5ovjcjA750WUgc-0" value="" style="rounded=0;html=1;jettySize=auto;orthogonalLoop=1;fontSize=11;endArrow=block;endFill=0;endSize=8;strokeWidth=1;shadow=0;labelBackgroundColor=none;edgeStyle=orthogonalEdgeStyle;" edge="1" parent="WIyWlLk6GJQsqaUBKTNV-1" source="QgaYSg5ovjcjA750WUgc-2" target="QgaYSg5ovjcjA750WUgc-3">
          <mxGeometry relative="1" as="geometry" />
        </mxCell>
        <mxCell id="QgaYSg5ovjcjA750WUgc-1" value="" style="edgeStyle=orthogonalEdgeStyle;rounded=0;orthogonalLoop=1;jettySize=auto;html=1;" edge="1" parent="WIyWlLk6GJQsqaUBKTNV-1" source="QgaYSg5ovjcjA750WUgc-2">
          <mxGeometry relative="1" as="geometry">
            <mxPoint x="917.5" y="160" as="targetPoint" />
          </mxGeometry>
        </mxCell>
        <mxCell id="QgaYSg5ovjcjA750WUgc-2" value="Programa Troca&amp;nbsp;" style="rounded=1;whiteSpace=wrap;html=1;fontSize=12;glass=0;strokeWidth=1;shadow=0;" vertex="1" parent="WIyWlLk6GJQsqaUBKTNV-1">
          <mxGeometry x="857.5" y="40" width="120" height="40" as="geometry" />
        </mxCell>
        <mxCell id="QgaYSg5ovjcjA750WUgc-3" value="Verifica se Cliente tem programa fidelidade" style="rhombus;whiteSpace=wrap;html=1;shadow=0;fontFamily=Helvetica;fontSize=12;align=center;strokeWidth=1;spacing=6;spacingTop=-4;" vertex="1" parent="WIyWlLk6GJQsqaUBKTNV-1">
          <mxGeometry x="840" y="110" width="155" height="150" as="geometry" />
        </mxCell>
        <mxCell id="QgaYSg5ovjcjA750WUgc-4" value="" style="edgeStyle=orthogonalEdgeStyle;rounded=0;orthogonalLoop=1;jettySize=auto;html=1;" edge="1" parent="WIyWlLk6GJQsqaUBKTNV-1" source="QgaYSg5ovjcjA750WUgc-5" target="QgaYSg5ovjcjA750WUgc-3">
          <mxGeometry relative="1" as="geometry" />
        </mxCell>
        <mxCell id="QgaYSg5ovjcjA750WUgc-5" value="Retorna mensagem com o valor de desconto&amp;nbsp;" style="rounded=1;whiteSpace=wrap;html=1;fontSize=12;glass=0;strokeWidth=1;shadow=0;" vertex="1" parent="WIyWlLk6GJQsqaUBKTNV-1">
          <mxGeometry x="857.5" y="346.25" width="120" height="50" as="geometry" />
        </mxCell>
        <mxCell id="QgaYSg5ovjcjA750WUgc-6" value="fidelidade&amp;nbsp;&lt;div&gt;Ouro&lt;/div&gt;" style="rhombus;whiteSpace=wrap;html=1;shadow=0;fontFamily=Helvetica;fontSize=12;align=center;strokeWidth=1;spacing=6;spacingTop=-4;" vertex="1" parent="WIyWlLk6GJQsqaUBKTNV-1">
          <mxGeometry x="1145" y="57.5" width="85" height="85" as="geometry" />
        </mxCell>
        <mxCell id="QgaYSg5ovjcjA750WUgc-7" value="fidelidade&amp;nbsp;&lt;div&gt;Prata&lt;/div&gt;" style="rhombus;whiteSpace=wrap;html=1;shadow=0;fontFamily=Helvetica;fontSize=12;align=center;strokeWidth=1;spacing=6;spacingTop=-4;" vertex="1" parent="WIyWlLk6GJQsqaUBKTNV-1">
          <mxGeometry x="1145" y="142.5" width="85" height="85" as="geometry" />
        </mxCell>
        <mxCell id="QgaYSg5ovjcjA750WUgc-8" value="fidelidade&amp;nbsp;&lt;div&gt;Bronze&lt;/div&gt;" style="rhombus;whiteSpace=wrap;html=1;shadow=0;fontFamily=Helvetica;fontSize=12;align=center;strokeWidth=1;spacing=6;spacingTop=-4;" vertex="1" parent="WIyWlLk6GJQsqaUBKTNV-1">
          <mxGeometry x="1145" y="227.5" width="85" height="85" as="geometry" />
        </mxCell>
        <mxCell id="QgaYSg5ovjcjA750WUgc-9" value="" style="edgeStyle=orthogonalEdgeStyle;rounded=0;html=1;jettySize=auto;orthogonalLoop=1;fontSize=11;endArrow=block;endFill=0;endSize=8;strokeWidth=1;shadow=0;labelBackgroundColor=none;entryX=0;entryY=0.5;entryDx=0;entryDy=0;" edge="1" parent="WIyWlLk6GJQsqaUBKTNV-1" target="QgaYSg5ovjcjA750WUgc-6">
          <mxGeometry y="10" relative="1" as="geometry">
            <mxPoint as="offset" />
            <mxPoint x="995" y="185" as="sourcePoint" />
            <mxPoint x="1145" y="105" as="targetPoint" />
            <Array as="points">
              <mxPoint x="1045" y="185" />
              <mxPoint x="1045" y="100" />
            </Array>
          </mxGeometry>
        </mxCell>
        <mxCell id="QgaYSg5ovjcjA750WUgc-10" value="" style="edgeStyle=orthogonalEdgeStyle;rounded=0;html=1;jettySize=auto;orthogonalLoop=1;fontSize=11;endArrow=block;endFill=0;endSize=8;strokeWidth=1;shadow=0;labelBackgroundColor=none;entryX=0;entryY=0.5;entryDx=0;entryDy=0;" edge="1" parent="WIyWlLk6GJQsqaUBKTNV-1" target="QgaYSg5ovjcjA750WUgc-8">
          <mxGeometry y="10" relative="1" as="geometry">
            <mxPoint as="offset" />
            <mxPoint x="995" y="185" as="sourcePoint" />
            <mxPoint x="1145" y="100" as="targetPoint" />
            <Array as="points">
              <mxPoint x="1045" y="185" />
              <mxPoint x="1045" y="270" />
            </Array>
          </mxGeometry>
        </mxCell>
        <mxCell id="QgaYSg5ovjcjA750WUgc-11" value="valorProduto * 1.2" style="rounded=1;whiteSpace=wrap;html=1;fontSize=12;glass=0;strokeWidth=1;shadow=0;" vertex="1" parent="WIyWlLk6GJQsqaUBKTNV-1">
          <mxGeometry x="1315" y="250" width="120" height="40" as="geometry" />
        </mxCell>
        <mxCell id="QgaYSg5ovjcjA750WUgc-12" value="valorProduto * 1.5" style="rounded=1;whiteSpace=wrap;html=1;fontSize=12;glass=0;strokeWidth=1;shadow=0;" vertex="1" parent="WIyWlLk6GJQsqaUBKTNV-1">
          <mxGeometry x="1315" y="165" width="120" height="40" as="geometry" />
        </mxCell>
        <mxCell id="QgaYSg5ovjcjA750WUgc-13" value="valorProduto * 1.7" style="rounded=1;whiteSpace=wrap;html=1;fontSize=12;glass=0;strokeWidth=1;shadow=0;" vertex="1" parent="WIyWlLk6GJQsqaUBKTNV-1">
          <mxGeometry x="1315" y="80" width="120" height="40" as="geometry" />
        </mxCell>
        <mxCell id="QgaYSg5ovjcjA750WUgc-14" value="" style="edgeStyle=orthogonalEdgeStyle;rounded=0;html=1;jettySize=auto;orthogonalLoop=1;fontSize=11;endArrow=block;endFill=0;endSize=8;strokeWidth=1;shadow=0;labelBackgroundColor=none;entryX=0;entryY=0.5;entryDx=0;entryDy=0;exitX=1;exitY=0.5;exitDx=0;exitDy=0;" edge="1" parent="WIyWlLk6GJQsqaUBKTNV-1" source="QgaYSg5ovjcjA750WUgc-6" target="QgaYSg5ovjcjA750WUgc-13">
          <mxGeometry y="10" relative="1" as="geometry">
            <mxPoint as="offset" />
            <mxPoint x="1230" y="99.57" as="sourcePoint" />
            <mxPoint x="1532" y="100" as="targetPoint" />
          </mxGeometry>
        </mxCell>
        <mxCell id="QgaYSg5ovjcjA750WUgc-15" value="" style="edgeStyle=orthogonalEdgeStyle;rounded=0;html=1;jettySize=auto;orthogonalLoop=1;fontSize=11;endArrow=block;endFill=0;endSize=8;strokeWidth=1;shadow=0;labelBackgroundColor=none;exitX=1;exitY=0.5;exitDx=0;exitDy=0;" edge="1" parent="WIyWlLk6GJQsqaUBKTNV-1" source="QgaYSg5ovjcjA750WUgc-7">
          <mxGeometry y="10" relative="1" as="geometry">
            <mxPoint as="offset" />
            <mxPoint x="1224" y="185" as="sourcePoint" />
            <mxPoint x="1315" y="185" as="targetPoint" />
          </mxGeometry>
        </mxCell>
        <mxCell id="QgaYSg5ovjcjA750WUgc-16" value="" style="edgeStyle=orthogonalEdgeStyle;rounded=0;html=1;jettySize=auto;orthogonalLoop=1;fontSize=11;endArrow=block;endFill=0;endSize=8;strokeWidth=1;shadow=0;labelBackgroundColor=none;exitX=1;exitY=0.5;exitDx=0;exitDy=0;" edge="1" parent="WIyWlLk6GJQsqaUBKTNV-1" source="QgaYSg5ovjcjA750WUgc-8">
          <mxGeometry y="10" relative="1" as="geometry">
            <mxPoint as="offset" />
            <mxPoint x="1235" y="270" as="sourcePoint" />
            <mxPoint x="1315" y="269" as="targetPoint" />
          </mxGeometry>
        </mxCell>
        <mxCell id="QgaYSg5ovjcjA750WUgc-17" value="" style="endArrow=none;html=1;rounded=0;exitX=1;exitY=0.5;exitDx=0;exitDy=0;entryX=0;entryY=0.5;entryDx=0;entryDy=0;" edge="1" parent="WIyWlLk6GJQsqaUBKTNV-1" source="QgaYSg5ovjcjA750WUgc-3" target="QgaYSg5ovjcjA750WUgc-7">
          <mxGeometry width="50" height="50" relative="1" as="geometry">
            <mxPoint x="1040" y="190" as="sourcePoint" />
            <mxPoint x="1400" y="230" as="targetPoint" />
          </mxGeometry>
        </mxCell>
      </root>
    </mxGraphModel>
  </diagram>
</mxfile>
